# This file uses centimeters as units for non-parametric coordinates.

mtllib lshoulder.mtl
g default
v 42.315402 273.277807 -12.055794
v 39.032752 272.696691 -13.009750
v 38.823598 275.848699 -13.599365
v 42.254745 276.285039 -12.637121
v 42.021892 282.424932 -9.124542
v 38.941442 283.884282 -8.488726
v 40.050407 284.543401 -5.545729
v 43.209205 283.050145 -6.370625
v 44.864745 279.706456 -0.356670
v 42.528980 279.592504 2.203439
v 43.374759 276.519292 2.610833
v 45.795829 276.806798 -0.024728
v 45.158256 270.559392 -3.287940
v 42.620288 268.404912 -2.317595
v 42.147952 267.824651 -5.442822
v 44.841369 270.041845 -6.290612
v 30.668481 271.837072 -8.726383
v 29.738345 271.577367 -5.396054
v 28.779933 274.637822 -5.599907
v 29.737396 274.736608 -9.058943
v 45.610370 273.763219 -0.320728
v 46.580631 273.701177 -3.648807
v 46.753452 276.905706 -3.483157
v 34.019056 269.123296 -9.555012
v 33.004247 271.950963 -11.286493
v 35.925456 271.973028 -12.625292
v 36.811992 269.006780 -10.807726
v 29.922855 277.780156 -8.762949
v 32.218337 278.215886 -11.325321
v 32.158311 275.024175 -11.693884
v 38.219199 281.934728 -11.263746
v 38.246688 278.961705 -13.048597
v 35.056453 278.899846 -12.667963
v 35.179988 282.015050 -10.887735
v 32.500476 281.227300 -9.629152
v 32.912938 283.138555 -6.765465
v 35.775062 283.992284 -7.950773
v 31.992751 281.222509 -0.032642
v 34.618398 283.389837 -0.691013
v 33.385112 283.718877 -3.640246
v 30.691860 281.501684 -2.792448
v 41.514171 282.420110 0.471341
v 40.646905 284.135595 -2.414274
v 37.660610 284.270025 -1.235190
v 38.721231 282.536779 1.724668
v 35.795286 281.712713 2.106553
v 36.500470 278.846776 3.926705
v 39.607770 279.570470 3.542247
v 33.963292 272.322484 3.009321
v 37.286540 272.581945 3.965527
v 36.709625 275.694768 4.516319
v 33.278484 275.258428 3.554076
v 43.032596 270.316289 0.546091
v 43.315048 273.327581 2.241638
v 40.476619 272.643651 3.584905
v 40.353080 269.528447 1.804675
v 37.314023 269.608770 2.180681
v 36.591779 267.659185 -0.594329
v 39.758159 267.551244 -1.132286
v 31.893392 268.880224 -5.720997
v 34.886478 267.407842 -6.668766
v 35.482662 267.000127 -3.537333
v 32.324024 268.493383 -2.712430
v 39.737939 269.830755 -11.189608
v 40.914832 268.153692 -8.392042
v 37.872611 267.273412 -7.848492
v 33.511333 269.118596 0.041488
v 31.443805 271.828679 0.678392
v 30.157129 271.313237 -2.220778
v 33.217664 278.265661 2.972745
v 30.657897 278.093663 0.640193
v 30.665477 274.915563 1.115683
v 30.374971 280.984136 -5.795121
v 28.952436 277.842321 -5.434253
v 29.288127 278.240087 -2.263441
v 43.540630 270.320989 -9.050415
v 44.875171 273.449865 -9.723244
v 46.245101 273.303289 -6.820236
v 41.569778 279.220983 -12.092377
v 44.089420 279.714879 -9.761450
v 44.867587 276.627813 -10.199354
v 43.639835 282.663274 -3.362692
v 45.794879 279.966008 -3.687627
v 45.375942 280.230230 -6.862282
v 41.950172 271.046514 -10.895227
v 35.337642 275.413823 -13.192883
v 40.663020 281.306829 -10.958626
v 36.647067 284.694433 -4.596483
v 43.455955 281.718419 -1.010056
v 40.195424 276.129674 4.109834
v 44.743427 271.458043 -0.947282
v 38.886159 266.849126 -4.486583
v 32.077113 269.825170 -8.073004
v 29.180707 274.709691 -2.086927
v 46.352519 276.833837 -6.996132
v 30.789960 280.085546 -8.135778
v 33.582895 280.496984 1.812168
v 34.870206 270.236638 1.874947
vn 0.087720 0.004840 -0.996133
vn 0.484117 0.055358 -0.873250
vn 0.496927 -0.297590 -0.815171
vn 0.134031 -0.334635 -0.932768
vn 0.223763 0.969193 -0.102934
vn 0.587081 0.785113 -0.197315
vn 0.454406 0.720831 -0.523372
vn 0.125995 0.894503 -0.428941
vn 0.592480 0.079223 0.801680
vn 0.866102 0.111606 0.487250
vn 0.766793 0.453868 0.453907
vn 0.520978 0.415670 0.745520
vn 0.456395 -0.885058 -0.091526
vn 0.763127 -0.618109 -0.188626
vn 0.809365 -0.564482 0.162137
vn 0.528990 -0.813481 0.241697
vn -0.988341 -0.124521 -0.087622
vn -0.866090 -0.111663 -0.487258
vn -0.766789 -0.453871 -0.453911
vn -0.884850 -0.457248 -0.089243
vn 0.988342 0.124504 0.087626
vn 0.866102 0.111606 0.487250
vn 0.854474 -0.244858 0.458170
vn 0.970236 -0.223418 0.093413
vn -0.208017 -0.390617 -0.896743
vn -0.102950 -0.729722 -0.675949
vn -0.432551 -0.724570 -0.536562
vn -0.520998 -0.415637 -0.745525
vn -0.592464 -0.079286 -0.801686
vn -0.866090 -0.111663 -0.487258
vn -0.854460 0.244890 -0.458179
vn -0.606380 0.265030 -0.749708
vn -0.296707 0.316266 -0.901077
vn -0.278982 0.673469 -0.684550
vn 0.074996 0.671943 -0.736796
vn 0.048611 0.346066 -0.936950
vn -0.212514 0.912952 -0.348363
vn -0.278982 0.673469 -0.684550
vn -0.597331 0.588743 -0.544589
vn -0.528991 0.813480 -0.241701
vn -0.456407 0.885052 0.091522
vn -0.763142 0.618078 0.188664
vn -0.619138 0.592518 0.515355
vn -0.343673 0.840793 0.418278
vn -0.020106 0.941300 0.336971
vn 0.102998 0.729759 0.675901
vn 0.432527 0.724598 0.536543
vn 0.311278 0.921801 0.231061
vn 0.208036 0.390632 0.896732
vn 0.102998 0.729759 0.675901
vn -0.239827 0.641401 0.728758
vn -0.134023 0.334637 0.932768
vn -0.087712 -0.004846 0.996134
vn -0.484151 -0.055364 0.873231
vn -0.409295 -0.401249 0.819437
vn -0.048620 -0.346081 0.936944
vn 0.296748 -0.316248 0.901070
vn 0.278988 -0.673468 0.684549
vn 0.597307 -0.588730 0.544630
vn 0.606429 -0.265020 0.749673
vn 0.212520 -0.912950 0.348363
vn 0.278988 -0.673468 0.684549
vn -0.075068 -0.671920 0.736809
vn -0.125999 -0.894497 0.428953
vn -0.223771 -0.969191 0.102932
vn -0.587075 -0.785116 0.197319
vn -0.644585 -0.748847 -0.154073
vn -0.311277 -0.921816 -0.231002
vn 0.020136 -0.941296 -0.336982
vn -0.102950 -0.729722 -0.675949
vn 0.239850 -0.641383 -0.728766
vn 0.343716 -0.840785 -0.418259
vn -0.847785 -0.463790 0.257214
vn -0.587075 -0.785116 0.197319
vn -0.454378 -0.720806 0.523431
vn -0.699545 -0.429963 0.570762
vn -0.795928 -0.096197 0.597699
vn -0.484151 -0.055364 0.873231
vn -0.496942 0.297562 0.815172
vn -0.784936 0.250688 0.566595
vn -0.936476 0.243069 0.252844
vn -0.763142 0.618078 0.188664
vn -0.809360 0.564484 -0.162154
vn -0.970239 0.223411 -0.093400
vn 0.936471 -0.243048 -0.252882
vn 0.763127 -0.618109 -0.188626
vn 0.619123 -0.592514 -0.515378
vn 0.784912 -0.250695 -0.566626
vn 0.795910 0.096169 -0.597728
vn 0.484117 0.055358 -0.873250
vn 0.409304 0.401176 -0.819468
vn 0.699558 0.429982 -0.570731
vn 0.847778 0.463803 -0.257215
vn 0.587081 0.785113 -0.197315
vn 0.644612 0.748833 0.154028
vn 0.884842 0.457276 0.089181
vn 0.134031 -0.334635 -0.932768
vn 0.496927 -0.297590 -0.815171
vn 0.467139 -0.527618 -0.709507
vn 0.239850 -0.641383 -0.728766
vn 0.239850 -0.641383 -0.728766
vn -0.102950 -0.729722 -0.675949
vn -0.208017 -0.390617 -0.896743
vn 0.134031 -0.334635 -0.932768
vn 0.134031 -0.334635 -0.932768
vn -0.208017 -0.390617 -0.896743
vn -0.270082 -0.039828 -0.962013
vn 0.087720 0.004840 -0.996133
vn 0.125995 0.894503 -0.428941
vn 0.454406 0.720831 -0.523372
vn 0.323418 0.618064 -0.716518
vn 0.074996 0.671943 -0.736796
vn 0.074996 0.671943 -0.736796
vn -0.278982 0.673469 -0.684550
vn -0.212514 0.912952 -0.348363
vn 0.125995 0.894503 -0.428941
vn 0.125995 0.894503 -0.428941
vn -0.212514 0.912952 -0.348363
vn -0.124487 0.992203 -0.006097
vn 0.223763 0.969193 -0.102934
vn 0.520978 0.415670 0.745520
vn 0.766793 0.453868 0.453907
vn 0.635283 0.664019 0.394328
vn 0.432527 0.724598 0.536543
vn 0.432527 0.724598 0.536543
vn 0.102998 0.729759 0.675901
vn 0.208036 0.390632 0.896732
vn 0.520978 0.415670 0.745520
vn 0.520978 0.415670 0.745520
vn 0.208036 0.390632 0.896732
vn 0.270100 0.039808 0.962009
vn 0.592480 0.079223 0.801680
vn 0.528990 -0.813481 0.241697
vn 0.809365 -0.564482 0.162137
vn 0.779048 -0.481659 0.401359
vn 0.597307 -0.588730 0.544630
vn 0.597307 -0.588730 0.544630
vn 0.278988 -0.673468 0.684549
vn 0.212520 -0.912950 0.348363
vn 0.528990 -0.813481 0.241697
vn 0.528990 -0.813481 0.241697
vn 0.212520 -0.912950 0.348363
vn 0.124496 -0.992201 0.006104
vn 0.456395 -0.885058 -0.091526
vn -0.884850 -0.457248 -0.089243
vn -0.766789 -0.453871 -0.453911
vn -0.635301 -0.663997 -0.394334
vn -0.644585 -0.748847 -0.154073
vn -0.644585 -0.748847 -0.154073
vn -0.587075 -0.785116 0.197319
vn -0.847785 -0.463790 0.257214
vn -0.884850 -0.457248 -0.089243
vn -0.884850 -0.457248 -0.089243
vn -0.847785 -0.463790 0.257214
vn -0.954750 -0.118098 0.272956
vn -0.988341 -0.124521 -0.087622
vn 0.970236 -0.223418 0.093413
vn 0.854474 -0.244858 0.458170
vn 0.779048 -0.481659 0.401359
vn 0.809365 -0.564482 0.162137
vn 0.809365 -0.564482 0.162137
vn 0.763127 -0.618109 -0.188626
vn 0.936471 -0.243048 -0.252882
vn 0.970236 -0.223418 0.093413
vn 0.970236 -0.223418 0.093413
vn 0.936471 -0.243048 -0.252882
vn 0.954748 0.118108 -0.272959
vn 0.988342 0.124504 0.087626
vn -0.520998 -0.415637 -0.745525
vn -0.432551 -0.724570 -0.536562
vn -0.635301 -0.663997 -0.394334
vn -0.766789 -0.453871 -0.453911
vn -0.766789 -0.453871 -0.453911
vn -0.866090 -0.111663 -0.487258
vn -0.592464 -0.079286 -0.801686
vn -0.520998 -0.415637 -0.745525
vn -0.520998 -0.415637 -0.745525
vn -0.592464 -0.079286 -0.801686
vn -0.270082 -0.039828 -0.962013
vn -0.208017 -0.390617 -0.896743
vn -0.606380 0.265030 -0.749708
vn -0.854460 0.244890 -0.458179
vn -0.779043 0.481692 -0.401329
vn -0.597331 0.588743 -0.544589
vn -0.597331 0.588743 -0.544589
vn -0.278982 0.673469 -0.684550
vn -0.296707 0.316266 -0.901077
vn -0.606380 0.265030 -0.749708
vn -0.606380 0.265030 -0.749708
vn -0.296707 0.316266 -0.901077
vn -0.270082 -0.039828 -0.962013
vn -0.592464 -0.079286 -0.801686
vn 0.048611 0.346066 -0.936950
vn 0.074996 0.671943 -0.736796
vn 0.323418 0.618064 -0.716518
vn 0.409304 0.401176 -0.819468
vn 0.409304 0.401176 -0.819468
vn 0.484117 0.055358 -0.873250
vn 0.087720 0.004840 -0.996133
vn 0.048611 0.346066 -0.936950
vn 0.048611 0.346066 -0.936950
vn 0.087720 0.004840 -0.996133
vn -0.270082 -0.039828 -0.962013
vn -0.296707 0.316266 -0.901077
vn -0.528991 0.813480 -0.241701
vn -0.597331 0.588743 -0.544589
vn -0.779043 0.481692 -0.401329
vn -0.809360 0.564484 -0.162154
vn -0.809360 0.564484 -0.162154
vn -0.763142 0.618078 0.188664
vn -0.456407 0.885052 0.091522
vn -0.528991 0.813480 -0.241701
vn -0.528991 0.813480 -0.241701
vn -0.456407 0.885052 0.091522
vn -0.124487 0.992203 -0.006097
vn -0.212514 0.912952 -0.348363
vn -0.343673 0.840793 0.418278
vn -0.619138 0.592518 0.515355
vn -0.467142 0.527630 0.709497
vn -0.239827 0.641401 0.728758
vn -0.239827 0.641401 0.728758
vn 0.102998 0.729759 0.675901
vn -0.020106 0.941300 0.336971
vn -0.343673 0.840793 0.418278
vn -0.343673 0.840793 0.418278
vn -0.020106 0.941300 0.336971
vn -0.124487 0.992203 -0.006097
vn -0.456407 0.885052 0.091522
vn 0.311278 0.921801 0.231061
vn 0.432527 0.724598 0.536543
vn 0.635283 0.664019 0.394328
vn 0.644612 0.748833 0.154028
vn 0.644612 0.748833 0.154028
vn 0.587081 0.785113 -0.197315
vn 0.223763 0.969193 -0.102934
vn 0.311278 0.921801 0.231061
vn 0.311278 0.921801 0.231061
vn 0.223763 0.969193 -0.102934
vn -0.124487 0.992203 -0.006097
vn -0.020106 0.941300 0.336971
vn -0.134023 0.334637 0.932768
vn -0.239827 0.641401 0.728758
vn -0.467142 0.527630 0.709497
vn -0.496942 0.297562 0.815172
vn -0.496942 0.297562 0.815172
vn -0.484151 -0.055364 0.873231
vn -0.087712 -0.004846 0.996134
vn -0.134023 0.334637 0.932768
vn -0.134023 0.334637 0.932768
vn -0.087712 -0.004846 0.996134
vn 0.270100 0.039808 0.962009
vn 0.208036 0.390632 0.896732
vn -0.048620 -0.346081 0.936944
vn -0.409295 -0.401249 0.819437
vn -0.323418 -0.618082 0.716503
vn -0.075068 -0.671920 0.736809
vn -0.075068 -0.671920 0.736809
vn 0.278988 -0.673468 0.684549
vn 0.296748 -0.316248 0.901070
vn -0.048620 -0.346081 0.936944
vn -0.048620 -0.346081 0.936944
vn 0.296748 -0.316248 0.901070
vn 0.270100 0.039808 0.962009
vn -0.087712 -0.004846 0.996134
vn 0.606429 -0.265020 0.749673
vn 0.597307 -0.588730 0.544630
vn 0.779048 -0.481659 0.401359
vn 0.854474 -0.244858 0.458170
vn 0.854474 -0.244858 0.458170
vn 0.866102 0.111606 0.487250
vn 0.592480 0.079223 0.801680
vn 0.606429 -0.265020 0.749673
vn 0.606429 -0.265020 0.749673
vn 0.592480 0.079223 0.801680
vn 0.270100 0.039808 0.962009
vn 0.296748 -0.316248 0.901070
vn -0.125999 -0.894497 0.428953
vn -0.075068 -0.671920 0.736809
vn -0.323418 -0.618082 0.716503
vn -0.454378 -0.720806 0.523431
vn -0.454378 -0.720806 0.523431
vn -0.587075 -0.785116 0.197319
vn -0.223771 -0.969191 0.102932
vn -0.125999 -0.894497 0.428953
vn -0.125999 -0.894497 0.428953
vn -0.223771 -0.969191 0.102932
vn 0.124496 -0.992201 0.006104
vn 0.212520 -0.912950 0.348363
vn -0.311277 -0.921816 -0.231002
vn -0.644585 -0.748847 -0.154073
vn -0.635301 -0.663997 -0.394334
vn -0.432551 -0.724570 -0.536562
vn -0.432551 -0.724570 -0.536562
vn -0.102950 -0.729722 -0.675949
vn 0.020136 -0.941296 -0.336982
vn -0.311277 -0.921816 -0.231002
vn -0.311277 -0.921816 -0.231002
vn 0.020136 -0.941296 -0.336982
vn 0.124496 -0.992201 0.006104
vn -0.223771 -0.969191 0.102932
vn 0.343716 -0.840785 -0.418259
vn 0.239850 -0.641383 -0.728766
vn 0.467139 -0.527618 -0.709507
vn 0.619123 -0.592514 -0.515378
vn 0.619123 -0.592514 -0.515378
vn 0.763127 -0.618109 -0.188626
vn 0.456395 -0.885058 -0.091526
vn 0.343716 -0.840785 -0.418259
vn 0.343716 -0.840785 -0.418259
vn 0.456395 -0.885058 -0.091526
vn 0.124496 -0.992201 0.006104
vn 0.020136 -0.941296 -0.336982
vn -0.699545 -0.429963 0.570762
vn -0.454378 -0.720806 0.523431
vn -0.323418 -0.618082 0.716503
vn -0.409295 -0.401249 0.819437
vn -0.409295 -0.401249 0.819437
vn -0.484151 -0.055364 0.873231
vn -0.795928 -0.096197 0.597699
vn -0.699545 -0.429963 0.570762
vn -0.699545 -0.429963 0.570762
vn -0.795928 -0.096197 0.597699
vn -0.954750 -0.118098 0.272956
vn -0.847785 -0.463790 0.257214
vn -0.784936 0.250688 0.566595
vn -0.496942 0.297562 0.815172
vn -0.467142 0.527630 0.709497
vn -0.619138 0.592518 0.515355
vn -0.619138 0.592518 0.515355
vn -0.763142 0.618078 0.188664
vn -0.936476 0.243069 0.252844
vn -0.784936 0.250688 0.566595
vn -0.784936 0.250688 0.566595
vn -0.936476 0.243069 0.252844
vn -0.954750 -0.118098 0.272956
vn -0.795928 -0.096197 0.597699
vn -0.970239 0.223411 -0.093400
vn -0.809360 0.564484 -0.162154
vn -0.779043 0.481692 -0.401329
vn -0.854460 0.244890 -0.458179
vn -0.854460 0.244890 -0.458179
vn -0.866090 -0.111663 -0.487258
vn -0.988341 -0.124521 -0.087622
vn -0.970239 0.223411 -0.093400
vn -0.970239 0.223411 -0.093400
vn -0.988341 -0.124521 -0.087622
vn -0.954750 -0.118098 0.272956
vn -0.936476 0.243069 0.252844
vn 0.784912 -0.250695 -0.566626
vn 0.619123 -0.592514 -0.515378
vn 0.467139 -0.527618 -0.709507
vn 0.496927 -0.297590 -0.815171
vn 0.496927 -0.297590 -0.815171
vn 0.484117 0.055358 -0.873250
vn 0.795910 0.096169 -0.597728
vn 0.784912 -0.250695 -0.566626
vn 0.784912 -0.250695 -0.566626
vn 0.795910 0.096169 -0.597728
vn 0.954748 0.118108 -0.272959
vn 0.936471 -0.243048 -0.252882
vn 0.699558 0.429982 -0.570731
vn 0.409304 0.401176 -0.819468
vn 0.323418 0.618064 -0.716518
vn 0.454406 0.720831 -0.523372
vn 0.454406 0.720831 -0.523372
vn 0.587081 0.785113 -0.197315
vn 0.847778 0.463803 -0.257215
vn 0.699558 0.429982 -0.570731
vn 0.699558 0.429982 -0.570731
vn 0.847778 0.463803 -0.257215
vn 0.954748 0.118108 -0.272959
vn 0.795910 0.096169 -0.597728
vn 0.884842 0.457276 0.089181
vn 0.644612 0.748833 0.154028
vn 0.635283 0.664019 0.394328
vn 0.766793 0.453868 0.453907
vn 0.766793 0.453868 0.453907
vn 0.866102 0.111606 0.487250
vn 0.988342 0.124504 0.087626
vn 0.884842 0.457276 0.089181
vn 0.884842 0.457276 0.089181
vn 0.988342 0.124504 0.087626
vn 0.954748 0.118108 -0.272959
vn 0.847778 0.463803 -0.257215
s off
g polySurface8 IronMan:null_111
usemtl IronMan:red
f 3//1 4//2 1//3 2//4
f 7//5 8//6 5//7 6//8
f 11//9 12//10 9//11 10//12
f 15//13 16//14 13//15 14//16
f 19//17 20//18 17//19 18//20
f 23//21 12//22 21//23 22//24
f 26//25 27//26 24//27 25//28
f 30//29 20//30 28//31 29//32
f 33//33 34//34 31//35 32//36
f 37//37 34//38 35//39 36//40
f 40//41 41//42 38//43 39//44
f 44//45 45//46 42//47 43//48
f 48//49 45//50 46//51 47//52
f 51//53 52//54 49//55 50//56
f 55//57 56//58 53//59 54//60
f 59//61 56//62 57//63 58//64
f 62//65 63//66 60//67 61//68
f 66//69 27//70 64//71 65//72
f 69//73 63//74 67//75 68//76
f 72//77 52//78 70//79 71//80
f 75//81 41//82 73//83 74//84
f 78//85 16//86 76//87 77//88
f 81//89 4//90 79//91 80//92
f 84//93 8//94 82//95 83//96
f 2//97 1//98 85//99 64//100
f 64//101 27//102 26//103 2//104
f 2//105 26//106 86//107 3//108
f 6//109 5//110 87//111 31//112
f 31//113 34//114 37//115 6//116
f 6//117 37//118 88//119 7//120
f 10//121 9//122 89//123 42//124
f 42//125 45//126 48//127 10//128
f 10//129 48//130 90//131 11//132
f 14//133 13//134 91//135 53//136
f 53//137 56//138 59//139 14//140
f 14//141 59//142 92//143 15//144
f 18//145 17//146 93//147 60//148
f 60//149 63//150 69//151 18//152
f 18//153 69//154 94//155 19//156
f 22//157 21//158 91//159 13//160
f 13//161 16//162 78//163 22//164
f 22//165 78//166 95//167 23//168
f 25//169 24//170 93//171 17//172
f 17//173 20//174 30//175 25//176
f 25//177 30//178 86//179 26//180
f 29//181 28//182 96//183 35//184
f 35//185 34//186 33//187 29//188
f 29//189 33//190 86//191 30//192
f 32//193 31//194 87//195 79//196
f 79//197 4//198 3//199 32//200
f 32//201 3//202 86//203 33//204
f 36//205 35//206 96//207 73//208
f 73//209 41//210 40//211 36//212
f 36//213 40//214 88//215 37//216
f 39//217 38//218 97//219 46//220
f 46//221 45//222 44//223 39//224
f 39//225 44//226 88//227 40//228
f 43//229 42//230 89//231 82//232
f 82//233 8//234 7//235 43//236
f 43//237 7//238 88//239 44//240
f 47//241 46//242 97//243 70//244
f 70//245 52//246 51//247 47//248
f 47//249 51//250 90//251 48//252
f 50//253 49//254 98//255 57//256
f 57//257 56//258 55//259 50//260
f 50//261 55//262 90//263 51//264
f 54//265 53//266 91//267 21//268
f 21//269 12//270 11//271 54//272
f 54//273 11//274 90//275 55//276
f 58//277 57//278 98//279 67//280
f 67//281 63//282 62//283 58//284
f 58//285 62//286 92//287 59//288
f 61//289 60//290 93//291 24//292
f 24//293 27//294 66//295 61//296
f 61//297 66//298 92//299 62//300
f 65//301 64//302 85//303 76//304
f 76//305 16//306 15//307 65//308
f 65//309 15//310 92//311 66//312
f 68//313 67//314 98//315 49//316
f 49//317 52//318 72//319 68//320
f 68//321 72//322 94//323 69//324
f 71//325 70//326 97//327 38//328
f 38//329 41//330 75//331 71//332
f 71//333 75//334 94//335 72//336
f 74//337 73//338 96//339 28//340
f 28//341 20//342 19//343 74//344
f 74//345 19//346 94//347 75//348
f 77//349 76//350 85//351 1//352
f 1//353 4//354 81//355 77//356
f 77//357 81//358 95//359 78//360
f 80//361 79//362 87//363 5//364
f 5//365 8//366 84//367 80//368
f 80//369 84//370 95//371 81//372
f 83//373 82//374 89//375 9//376
f 9//377 12//378 23//379 83//380
f 83//381 23//382 95//383 84//384
