# This file uses centimeters as units for non-parametric coordinates.

mtllib rshoulder.mtl
g default
v -46.145404 294.557412 -12.650997
v -42.714576 294.121103 -13.613247
v -42.923730 290.968973 -13.024248
v -46.206382 291.550210 -12.069670
v -47.100185 301.322519 -6.384492
v -43.941387 302.815774 -5.559593
v -42.832111 302.156686 -8.502604
v -45.912868 300.697336 -9.138424
v -49.686805 295.079141 -0.038594
v -47.265739 294.791696 2.596961
v -46.419643 297.864877 2.189572
v -48.755725 297.978738 -0.371170
v -48.732028 288.314126 -6.305111
v -46.038929 286.096994 -5.456686
v -46.511261 286.677163 -2.332083
v -49.049232 288.831674 -3.302429
v -33.628217 293.009012 -9.072824
v -32.670749 292.910165 -5.613769
v -33.629320 289.849771 -5.409930
v -34.559297 290.109475 -8.740259
v -50.644115 295.178110 -3.497025
v -50.471611 291.973520 -3.662673
v -49.501350 292.035623 -0.334599
v -40.702964 287.279062 -10.821587
v -39.816431 290.245431 -12.639168
v -36.895221 290.223367 -11.300365
v -37.909873 287.395700 -9.568890
v -36.049127 293.296548 -11.707758
v -36.109159 296.488168 -11.339182
v -33.813674 296.052560 -8.776827
v -39.070966 300.287423 -10.901608
v -38.947429 297.172220 -12.681835
v -42.137664 297.233896 -13.062445
v -42.110178 300.206979 -11.278231
v -39.666046 302.264688 -7.964649
v -36.803758 301.410867 -6.779327
v -36.391292 299.499612 -9.643013
v -34.582838 299.774087 -2.806320
v -37.276094 301.991281 -3.654114
v -38.509220 301.662179 -0.704885
v -35.883575 299.494912 -0.046514
v -42.611896 300.809152 1.710795
v -41.551593 302.542398 -1.249062
v -44.537572 302.407846 -2.428768
v -45.405151 300.692483 0.457469
v -43.498432 297.842843 3.528369
v -40.391450 297.119119 3.912833
v -39.686264 299.985116 2.092680
v -37.169305 293.530679 3.539582
v -40.600290 293.967172 4.502447
v -41.177198 290.854318 3.951655
v -37.854267 290.594919 2.995454
v -44.244054 287.800821 1.790803
v -44.367589 290.915902 3.570416
v -47.205707 291.599954 2.227767
v -46.923568 288.588632 0.532220
v -43.649139 285.823648 -1.146154
v -40.482751 285.931527 -0.608196
v -41.204683 287.881143 2.166814
v -36.214839 286.765756 -2.726302
v -39.373477 285.272470 -3.551205
v -38.777294 285.680276 -6.682644
v -35.784366 287.152566 -5.734859
v -41.763267 285.545755 -7.862360
v -44.805805 286.426004 -8.405903
v -43.628597 288.103158 -11.203484
v -34.048103 289.585641 -2.234646
v -35.334779 290.101083 0.664520
v -37.402153 287.390939 0.027619
v -34.556301 293.187936 1.101810
v -34.548717 296.365884 0.625704
v -37.108644 296.538034 2.958883
v -33.178945 296.512430 -2.277312
v -32.843254 296.114663 -5.448125
v -34.265789 299.256479 -5.808988
v -50.135761 291.575723 -6.834106
v -48.766151 291.722268 -9.737120
v -47.431293 288.593362 -9.064285
v -48.758567 294.900247 -10.213230
v -47.980083 297.987130 -9.775314
v -45.460754 297.493326 -12.106247
v -49.266922 298.502572 -6.876143
v -49.685543 298.238412 -3.701493
v -47.530498 300.935617 -3.376562
v -45.841148 289.318918 -10.909100
v -39.228620 293.686227 -13.206760
v -44.553998 299.579172 -10.972502
v -40.538049 302.966745 -4.610349
v -47.346935 299.990671 -1.024550
v -44.086404 294.401925 4.095340
v -48.634082 289.730356 -0.961154
v -42.776815 285.121347 -4.501067
v -35.968088 288.097513 -8.086870
v -33.071523 292.982034 -2.100795
v -50.243499 295.106271 -7.010012
v -34.680780 298.357889 -8.149641
v -37.473875 298.769388 1.798301
v -38.761022 288.508981 1.861075
vn -0.293917 -0.165967 -0.941312
vn -0.293918 -0.165967 -0.941312
vn -0.293917 -0.165967 -0.941312
vn -0.293918 -0.165967 -0.941312
vn -0.223767 0.969195 -0.102900
vn -0.125982 0.894516 -0.428917
vn -0.454413 0.720817 -0.523384
vn -0.587098 0.785110 -0.197279
vn -0.592425 0.079235 0.801720
vn -0.520982 0.415663 0.745521
vn -0.766804 0.453903 0.453854
vn -0.866109 0.111655 0.487226
vn -0.456412 -0.885049 -0.091525
vn -0.528999 -0.813486 0.241661
vn -0.809373 -0.564480 0.162104
vn -0.763115 -0.618088 -0.188741
vn 0.988338 -0.124542 -0.087616
vn 0.884839 -0.457272 -0.089231
vn 0.766781 -0.453891 -0.453905
vn 0.866089 -0.111661 -0.487259
vn -0.988335 0.124549 0.087646
vn -0.970239 -0.223410 0.093405
vn -0.854462 -0.244898 0.458170
vn -0.866109 0.111655 0.487226
vn 0.208079 -0.390643 -0.896717
vn 0.520982 -0.415643 -0.745532
vn 0.432570 -0.724558 -0.536563
vn 0.102933 -0.729724 -0.675950
vn 0.592454 -0.079291 -0.801693
vn 0.606371 0.265030 -0.749715
vn 0.854456 0.244899 -0.458180
vn 0.866089 -0.111661 -0.487259
vn 0.296712 0.316248 -0.901082
vn -0.048628 0.346013 -0.936969
vn -0.075033 0.671901 -0.736831
vn 0.279031 0.673470 -0.684529
vn 0.212523 0.912958 -0.348342
vn 0.528991 0.813480 -0.241698
vn 0.597328 0.588741 -0.544595
vn 0.279031 0.673470 -0.684529
vn 0.456392 0.885060 0.091515
vn 0.343674 0.840794 0.418274
vn 0.619149 0.592484 0.515381
vn 0.763130 0.618094 0.188659
vn 0.020073 0.941308 0.336951
vn -0.311289 0.921808 0.231016
vn -0.432586 0.724598 0.536495
vn -0.102979 0.729760 0.675904
vn -0.208042 0.390563 0.896761
vn 0.133986 0.334618 0.932780
vn 0.239828 0.641399 0.728759
vn -0.102979 0.729760 0.675904
vn 0.087685 -0.004836 0.996137
vn 0.048550 -0.346069 0.936952
vn 0.409312 -0.401201 0.819452
vn 0.484190 -0.055381 0.873208
vn -0.296766 -0.316222 0.901074
vn -0.606359 -0.265036 0.749723
vn -0.597339 -0.588702 0.544626
vn -0.278984 -0.673426 0.684591
vn -0.212532 -0.912946 0.348369
vn 0.125979 -0.894498 0.428956
vn 0.075057 -0.671908 0.736821
vn -0.278984 -0.673426 0.684591
vn 0.223784 -0.969188 0.102936
vn 0.311299 -0.921807 -0.231010
vn 0.644590 -0.748841 -0.154082
vn 0.587096 -0.785103 0.197312
vn -0.020101 -0.941289 -0.337003
vn -0.343727 -0.840772 -0.418276
vn -0.239818 -0.641429 -0.728736
vn 0.102933 -0.729724 -0.675950
vn 0.847782 -0.463796 0.257213
vn 0.699542 -0.429963 0.570765
vn 0.454390 -0.720797 0.523433
vn 0.587096 -0.785103 0.197312
vn 0.795916 -0.096170 0.597719
vn 0.784951 0.250687 0.566576
vn 0.496970 0.297537 0.815164
vn 0.484190 -0.055381 0.873208
vn 0.936468 0.243069 0.252875
vn 0.970239 0.223412 -0.093399
vn 0.809358 0.564489 -0.162144
vn 0.763130 0.618094 0.188659
vn -0.936458 -0.243084 -0.252896
vn -0.784928 -0.250728 -0.566589
vn -0.619128 -0.592511 -0.515375
vn -0.763115 -0.618088 -0.188741
vn -0.795904 0.096205 -0.597730
vn -0.699551 0.429981 -0.570741
vn -0.409317 0.401177 -0.819461
vn -0.484090 0.055360 -0.873265
vn -0.847787 0.463792 -0.257207
vn -0.884836 0.457281 0.089217
vn -0.644586 0.748842 0.154091
vn -0.587098 0.785110 -0.197279
vn -0.134030 -0.334634 -0.932768
vn -0.239818 -0.641429 -0.728736
vn -0.467173 -0.527643 -0.709466
vn -0.496981 -0.297549 -0.815153
vn -0.239818 -0.641429 -0.728736
vn -0.134030 -0.334634 -0.932768
vn 0.208079 -0.390643 -0.896717
vn 0.102933 -0.729724 -0.675950
vn -0.134030 -0.334634 -0.932768
vn -0.087738 0.004924 -0.996132
vn 0.270101 -0.039806 -0.962009
vn 0.208079 -0.390643 -0.896717
vn -0.125982 0.894516 -0.428917
vn -0.075033 0.671901 -0.736831
vn -0.323472 0.618042 -0.716512
vn -0.454413 0.720817 -0.523384
vn -0.075033 0.671901 -0.736831
vn -0.125982 0.894516 -0.428917
vn 0.212523 0.912958 -0.348342
vn 0.279031 0.673470 -0.684529
vn -0.125982 0.894516 -0.428917
vn -0.223767 0.969195 -0.102900
vn 0.124476 0.992204 -0.006089
vn 0.212523 0.912958 -0.348342
vn -0.520982 0.415663 0.745521
vn -0.432586 0.724598 0.536495
vn -0.635308 0.664020 0.394285
vn -0.766804 0.453903 0.453854
vn -0.432586 0.724598 0.536495
vn -0.520982 0.415663 0.745521
vn -0.208042 0.390563 0.896761
vn -0.102979 0.729760 0.675904
vn -0.520982 0.415663 0.745521
vn -0.592425 0.079235 0.801720
vn -0.270119 0.039766 0.962005
vn -0.208042 0.390563 0.896761
vn -0.528999 -0.813486 0.241661
vn -0.597339 -0.588702 0.544626
vn -0.779037 -0.481677 0.401359
vn -0.809373 -0.564480 0.162104
vn -0.597339 -0.588702 0.544626
vn -0.528999 -0.813486 0.241661
vn -0.212532 -0.912946 0.348369
vn -0.278984 -0.673426 0.684591
vn -0.528999 -0.813486 0.241661
vn -0.456412 -0.885049 -0.091525
vn -0.124476 -0.992204 0.006074
vn -0.212532 -0.912946 0.348369
vn 0.884839 -0.457272 -0.089231
vn 0.644590 -0.748841 -0.154082
vn 0.635302 -0.663999 -0.394329
vn 0.766781 -0.453891 -0.453905
vn 0.644590 -0.748841 -0.154082
vn 0.884839 -0.457272 -0.089231
vn 0.847782 -0.463796 0.257213
vn 0.587096 -0.785103 0.197312
vn 0.884839 -0.457272 -0.089231
vn 0.988338 -0.124542 -0.087616
vn 0.954746 -0.118110 0.272967
vn 0.847782 -0.463796 0.257213
vn -0.970239 -0.223410 0.093405
vn -0.809373 -0.564480 0.162104
vn -0.779037 -0.481677 0.401359
vn -0.854462 -0.244898 0.458170
vn -0.809373 -0.564480 0.162104
vn -0.970239 -0.223410 0.093405
vn -0.936458 -0.243084 -0.252896
vn -0.763115 -0.618088 -0.188741
vn -0.970239 -0.223410 0.093405
vn -0.988335 0.124549 0.087646
vn -0.954753 0.118114 -0.272938
vn -0.936458 -0.243084 -0.252896
vn 0.520982 -0.415643 -0.745532
vn 0.766781 -0.453891 -0.453905
vn 0.635302 -0.663999 -0.394329
vn 0.432570 -0.724558 -0.536563
vn 0.766781 -0.453891 -0.453905
vn 0.520982 -0.415643 -0.745532
vn 0.592454 -0.079291 -0.801693
vn 0.866089 -0.111661 -0.487259
vn 0.520982 -0.415643 -0.745532
vn 0.208079 -0.390643 -0.896717
vn 0.270101 -0.039806 -0.962009
vn 0.592454 -0.079291 -0.801693
vn 0.606371 0.265030 -0.749715
vn 0.597328 0.588741 -0.544595
vn 0.779038 0.481698 -0.401331
vn 0.854456 0.244899 -0.458180
vn 0.597328 0.588741 -0.544595
vn 0.606371 0.265030 -0.749715
vn 0.296712 0.316248 -0.901082
vn 0.279031 0.673470 -0.684529
vn 0.606371 0.265030 -0.749715
vn 0.592454 -0.079291 -0.801693
vn 0.270101 -0.039806 -0.962009
vn 0.296712 0.316248 -0.901082
vn -0.048628 0.346013 -0.936969
vn -0.409317 0.401177 -0.819461
vn -0.323472 0.618042 -0.716512
vn -0.075033 0.671901 -0.736831
vn -0.409317 0.401177 -0.819461
vn -0.048628 0.346013 -0.936969
vn -0.087738 0.004924 -0.996132
vn -0.484090 0.055360 -0.873265
vn -0.048628 0.346013 -0.936969
vn 0.296712 0.316248 -0.901082
vn 0.270101 -0.039806 -0.962009
vn -0.087738 0.004924 -0.996132
vn 0.528991 0.813480 -0.241698
vn 0.809358 0.564489 -0.162144
vn 0.779038 0.481698 -0.401331
vn 0.597328 0.588741 -0.544595
vn 0.809358 0.564489 -0.162144
vn 0.528991 0.813480 -0.241698
vn 0.456392 0.885060 0.091515
vn 0.763130 0.618094 0.188659
vn 0.528991 0.813480 -0.241698
vn 0.212523 0.912958 -0.348342
vn 0.124476 0.992204 -0.006089
vn 0.456392 0.885060 0.091515
vn 0.343674 0.840794 0.418274
vn 0.239828 0.641399 0.728759
vn 0.467163 0.527605 0.709501
vn 0.619149 0.592484 0.515381
vn 0.239828 0.641399 0.728759
vn 0.343674 0.840794 0.418274
vn 0.020073 0.941308 0.336951
vn -0.102979 0.729760 0.675904
vn 0.343674 0.840794 0.418274
vn 0.456392 0.885060 0.091515
vn 0.124476 0.992204 -0.006089
vn 0.020073 0.941308 0.336951
vn -0.311289 0.921808 0.231016
vn -0.644586 0.748842 0.154091
vn -0.635308 0.664020 0.394285
vn -0.432586 0.724598 0.536495
vn -0.644586 0.748842 0.154091
vn -0.311289 0.921808 0.231016
vn -0.223767 0.969195 -0.102900
vn -0.587098 0.785110 -0.197279
vn -0.311289 0.921808 0.231016
vn 0.020073 0.941308 0.336951
vn 0.124476 0.992204 -0.006089
vn -0.223767 0.969195 -0.102900
vn 0.133986 0.334618 0.932780
vn 0.496970 0.297537 0.815164
vn 0.467163 0.527605 0.709501
vn 0.239828 0.641399 0.728759
vn 0.496970 0.297537 0.815164
vn 0.133986 0.334618 0.932780
vn 0.087685 -0.004836 0.996137
vn 0.484190 -0.055381 0.873208
vn 0.133986 0.334618 0.932780
vn -0.208042 0.390563 0.896761
vn -0.270119 0.039766 0.962005
vn 0.087685 -0.004836 0.996137
vn 0.048550 -0.346069 0.936952
vn 0.075057 -0.671908 0.736821
vn 0.323436 -0.618072 0.716503
vn 0.409312 -0.401201 0.819452
vn 0.075057 -0.671908 0.736821
vn 0.048550 -0.346069 0.936952
vn -0.296766 -0.316222 0.901074
vn -0.278984 -0.673426 0.684591
vn 0.048550 -0.346069 0.936952
vn 0.087685 -0.004836 0.996137
vn -0.270119 0.039766 0.962005
vn -0.296766 -0.316222 0.901074
vn -0.606359 -0.265036 0.749723
vn -0.854462 -0.244898 0.458170
vn -0.779037 -0.481677 0.401359
vn -0.597339 -0.588702 0.544626
vn -0.854462 -0.244898 0.458170
vn -0.606359 -0.265036 0.749723
vn -0.592425 0.079235 0.801720
vn -0.866109 0.111655 0.487226
vn -0.606359 -0.265036 0.749723
vn -0.296766 -0.316222 0.901074
vn -0.270119 0.039766 0.962005
vn -0.592425 0.079235 0.801720
vn 0.125979 -0.894498 0.428956
vn 0.454390 -0.720797 0.523433
vn 0.323436 -0.618072 0.716503
vn 0.075057 -0.671908 0.736821
vn 0.454390 -0.720797 0.523433
vn 0.125979 -0.894498 0.428956
vn 0.223784 -0.969188 0.102936
vn 0.587096 -0.785103 0.197312
vn 0.125979 -0.894498 0.428956
vn -0.212532 -0.912946 0.348369
vn -0.124476 -0.992204 0.006074
vn 0.223784 -0.969188 0.102936
vn 0.311299 -0.921807 -0.231010
vn 0.432570 -0.724558 -0.536563
vn 0.635302 -0.663999 -0.394329
vn 0.644590 -0.748841 -0.154082
vn 0.432570 -0.724558 -0.536563
vn 0.311299 -0.921807 -0.231010
vn -0.020101 -0.941289 -0.337003
vn 0.102933 -0.729724 -0.675950
vn 0.311299 -0.921807 -0.231010
vn 0.223784 -0.969188 0.102936
vn -0.124476 -0.992204 0.006074
vn -0.020101 -0.941289 -0.337003
vn -0.343727 -0.840772 -0.418276
vn -0.619128 -0.592511 -0.515375
vn -0.467173 -0.527643 -0.709466
vn -0.239818 -0.641429 -0.728736
vn -0.619128 -0.592511 -0.515375
vn -0.343727 -0.840772 -0.418276
vn -0.456412 -0.885049 -0.091525
vn -0.763115 -0.618088 -0.188741
vn -0.343727 -0.840772 -0.418276
vn -0.020101 -0.941289 -0.337003
vn -0.124476 -0.992204 0.006074
vn -0.456412 -0.885049 -0.091525
vn 0.699542 -0.429963 0.570765
vn 0.409312 -0.401201 0.819452
vn 0.323436 -0.618072 0.716503
vn 0.454390 -0.720797 0.523433
vn 0.409312 -0.401201 0.819452
vn 0.699542 -0.429963 0.570765
vn 0.795916 -0.096170 0.597719
vn 0.484190 -0.055381 0.873208
vn 0.699542 -0.429963 0.570765
vn 0.847782 -0.463796 0.257213
vn 0.954746 -0.118110 0.272967
vn 0.795916 -0.096170 0.597719
vn 0.784951 0.250687 0.566576
vn 0.619149 0.592484 0.515381
vn 0.467163 0.527605 0.709501
vn 0.496970 0.297537 0.815164
vn 0.619149 0.592484 0.515381
vn 0.784951 0.250687 0.566576
vn 0.936468 0.243069 0.252875
vn 0.763130 0.618094 0.188659
vn 0.784951 0.250687 0.566576
vn 0.795916 -0.096170 0.597719
vn 0.954746 -0.118110 0.272967
vn 0.936468 0.243069 0.252875
vn 0.970239 0.223412 -0.093399
vn 0.854456 0.244899 -0.458180
vn 0.779038 0.481698 -0.401331
vn 0.809358 0.564489 -0.162144
vn 0.854456 0.244899 -0.458180
vn 0.970239 0.223412 -0.093399
vn 0.988338 -0.124542 -0.087616
vn 0.866089 -0.111661 -0.487259
vn 0.970239 0.223412 -0.093399
vn 0.936468 0.243069 0.252875
vn 0.954746 -0.118110 0.272967
vn 0.988338 -0.124542 -0.087616
vn -0.784928 -0.250728 -0.566589
vn -0.496981 -0.297549 -0.815153
vn -0.467173 -0.527643 -0.709466
vn -0.619128 -0.592511 -0.515375
vn -0.496981 -0.297549 -0.815153
vn -0.784928 -0.250728 -0.566589
vn -0.795904 0.096205 -0.597730
vn -0.484090 0.055360 -0.873265
vn -0.784928 -0.250728 -0.566589
vn -0.936458 -0.243084 -0.252896
vn -0.954753 0.118114 -0.272938
vn -0.795904 0.096205 -0.597730
vn -0.699551 0.429981 -0.570741
vn -0.454413 0.720817 -0.523384
vn -0.323472 0.618042 -0.716512
vn -0.409317 0.401177 -0.819461
vn -0.454413 0.720817 -0.523384
vn -0.699551 0.429981 -0.570741
vn -0.847787 0.463792 -0.257207
vn -0.587098 0.785110 -0.197279
vn -0.699551 0.429981 -0.570741
vn -0.795904 0.096205 -0.597730
vn -0.954753 0.118114 -0.272938
vn -0.847787 0.463792 -0.257207
vn -0.884836 0.457281 0.089217
vn -0.766804 0.453903 0.453854
vn -0.635308 0.664020 0.394285
vn -0.644586 0.748842 0.154091
vn -0.766804 0.453903 0.453854
vn -0.884836 0.457281 0.089217
vn -0.988335 0.124549 0.087646
vn -0.866109 0.111655 0.487226
vn -0.884836 0.457281 0.089217
vn -0.847787 0.463792 -0.257207
vn -0.954753 0.118114 -0.272938
vn -0.988335 0.124549 0.087646
s off
g polySurface7 IronMan:null_111
usemtl IronMan:red
f 2//1 3//2 4//3 1//4
f 6//5 7//6 8//7 5//8
f 10//9 11//10 12//11 9//12
f 14//13 15//14 16//15 13//16
f 18//17 19//18 20//19 17//20
f 21//21 22//22 23//23 9//24
f 25//25 26//26 27//27 24//28
f 28//29 29//30 30//31 17//32
f 32//33 33//34 34//35 31//36
f 35//37 36//38 37//39 31//40
f 39//41 40//42 41//43 38//44
f 43//45 44//46 45//47 42//48
f 46//49 47//50 48//51 42//52
f 50//53 51//54 52//55 49//56
f 54//57 55//58 56//59 53//60
f 57//61 58//62 59//63 53//64
f 61//65 62//66 63//67 60//68
f 64//69 65//70 66//71 24//72
f 67//73 68//74 69//75 60//76
f 70//77 71//78 72//79 49//80
f 73//81 74//82 75//83 38//84
f 76//85 77//86 78//87 13//88
f 79//89 80//90 81//91 1//92
f 82//93 83//94 84//95 5//96
f 3//97 66//98 85//99 4//100
f 66//101 3//102 25//103 24//104
f 3//105 2//106 86//107 25//108
f 7//109 34//110 87//111 8//112
f 34//113 7//114 35//115 31//116
f 7//117 6//118 88//119 35//120
f 11//121 45//122 89//123 12//124
f 45//125 11//126 46//127 42//128
f 11//129 10//130 90//131 46//132
f 15//133 56//134 91//135 16//136
f 56//137 15//138 57//139 53//140
f 15//141 14//142 92//143 57//144
f 19//145 63//146 93//147 20//148
f 63//149 19//150 67//151 60//152
f 19//153 18//154 94//155 67//156
f 22//157 16//158 91//159 23//160
f 16//161 22//162 76//163 13//164
f 22//165 21//166 95//167 76//168
f 26//169 20//170 93//171 27//172
f 20//173 26//174 28//175 17//176
f 26//177 25//178 86//179 28//180
f 29//181 37//182 96//183 30//184
f 37//185 29//186 32//187 31//188
f 29//189 28//190 86//191 32//192
f 33//193 81//194 87//195 34//196
f 81//197 33//198 2//199 1//200
f 33//201 32//202 86//203 2//204
f 36//205 75//206 96//207 37//208
f 75//209 36//210 39//211 38//212
f 36//213 35//214 88//215 39//216
f 40//217 48//218 97//219 41//220
f 48//221 40//222 43//223 42//224
f 40//225 39//226 88//227 43//228
f 44//229 84//230 89//231 45//232
f 84//233 44//234 6//235 5//236
f 44//237 43//238 88//239 6//240
f 47//241 72//242 97//243 48//244
f 72//245 47//246 50//247 49//248
f 47//249 46//250 90//251 50//252
f 51//253 59//254 98//255 52//256
f 59//257 51//258 54//259 53//260
f 51//261 50//262 90//263 54//264
f 55//265 23//266 91//267 56//268
f 23//269 55//270 10//271 9//272
f 55//273 54//274 90//275 10//276
f 58//277 69//278 98//279 59//280
f 69//281 58//282 61//283 60//284
f 58//285 57//286 92//287 61//288
f 62//289 27//290 93//291 63//292
f 27//293 62//294 64//295 24//296
f 62//297 61//298 92//299 64//300
f 65//301 78//302 85//303 66//304
f 78//305 65//306 14//307 13//308
f 65//309 64//310 92//311 14//312
f 68//313 52//314 98//315 69//316
f 52//317 68//318 70//319 49//320
f 68//321 67//322 94//323 70//324
f 71//325 41//326 97//327 72//328
f 41//329 71//330 73//331 38//332
f 71//333 70//334 94//335 73//336
f 74//337 30//338 96//339 75//340
f 30//341 74//342 18//343 17//344
f 74//345 73//346 94//347 18//348
f 77//349 4//350 85//351 78//352
f 4//353 77//354 79//355 1//356
f 77//357 76//358 95//359 79//360
f 80//361 8//362 87//363 81//364
f 8//365 80//366 82//367 5//368
f 80//369 79//370 95//371 82//372
f 83//373 12//374 89//375 84//376
f 12//377 83//378 21//379 9//380
f 83//381 82//382 95//383 21//384
